<?xml version="1.0" encoding="utf-8"?>
<!-- Svg Vector Icons : http://www.onlinewebfonts.com/icon -->
<!DOCTYPE svg PUBLIC "-//W3C//DTD SVG 1.1//EN" "http://www.w3.org/Graphics/SVG/1.1/DTD/svg11.dtd">
<svg version="1.1" xmlns="http://www.w3.org/2000/svg" xmlns:xlink="http://www.w3.org/1999/xlink" x="0px" y="0px" viewBox="0 0 1000 1000" enable-background="new 0 0 1000 1000" xml:space="preserve">
<metadata> Svg Vector Icons : http://www.onlinewebfonts.com/icon </metadata>
<g><path d="M515.1,561.9"/><path d="M340.7,377.7c0,88.4,71.6,160,160,160s160-71.6,160-160s-71.6-160-160-160S340.7,289.3,340.7,377.7L340.7,377.7z"/><path d="M818,871.2c-8.7-168.7-148.2-302.8-319-302.8c-170.8,0-310.4,134.1-319.1,302.8H818z"/><path d="M236,861.8c0,0,15.1,28,15.8,30.2c0.7,2.2,17.3,24.2,31.3,25.7c14,1.6,49.9,12.3,62.8,15.2c12.9,2.9,91.2,24.4,93.4,25.1s56.1,13.1,69.7,12.5c13.6-0.5,88.9-10,98.8-12.4c9.9-2.4,128.9-46.1,128.9-46.1s28-27.3,29.5-29.5c1.4-2.2,18-33,18-35.2c0-2.2-67.5-35.9-75.4-34.5s-288.8-2.2-290.9,0S236,861.8,236,861.8z"/><path d="M500,990c-66.1,0-130.3-13-190.7-38.5c-58.4-24.7-110.8-60-155.7-105c-45-45-80.3-97.4-105-155.7C23,630.3,10,566.1,10,500s13-130.3,38.5-190.7c24.7-58.4,60-110.8,105-155.7c45-45,97.4-80.3,155.7-105C369.7,23,433.9,10,500,10c66.1,0,130.3,13,190.7,38.5c58.4,24.7,110.8,60,155.7,105c45,45,80.3,97.4,105,155.7C977,369.7,990,433.9,990,500c0,66.1-13,130.3-38.5,190.7c-24.7,58.4-60,110.8-105,155.7c-45,45-97.4,80.3-155.7,105C630.3,977,566.1,990,500,990z M500,48.8C251.2,48.8,48.8,251.2,48.8,500S251.2,951.2,500,951.2S951.2,748.8,951.2,500C951.2,251.2,748.8,48.8,500,48.8z"/></g>
</svg>