<?xml version="1.0" encoding="iso-8859-1"?>
<!-- Generator: Adobe Illustrator 16.0.0, SVG Export Plug-In . SVG Version: 6.00 Build 0)  -->
<!DOCTYPE svg PUBLIC "-//W3C//DTD SVG 1.1//EN" "http://www.w3.org/Graphics/SVG/1.1/DTD/svg11.dtd">
<svg version="1.1" id="Capa_1" xmlns="http://www.w3.org/2000/svg" xmlns:xlink="http://www.w3.org/1999/xlink" x="0px" y="0px"
	 width="85.285px" height="85.285px" viewBox="0 0 85.285 85.285" style="enable-background:new 0 0 85.285 85.285;"
	 xml:space="preserve">
<g>
	<g>
		<circle cx="43.161" cy="20.508" r="13.432"/>
		<path d="M82.812,16.841c-2.96-2.512-7.375-2.144-9.876,0.811l-19.773,23.3c-2.55-2.59-6.078-4.209-10.002-4.209
			c-4.209,0-7.94,1.892-10.506,4.829l-20.3-23.923c-2.514-2.951-6.928-3.316-9.883-0.811c-2.95,2.507-3.311,6.928-0.806,9.88
			l26.385,31.088c0.329,0.391,0.704,0.732,1.097,1.034v19.369h28.033V57.86c0.021-0.021,0.041-0.034,0.064-0.055L83.62,26.717
			C86.122,23.769,85.766,19.348,82.812,16.841z M52.694,54.199c-0.086,0.267-0.179,0.712-0.336,1.136
			c-0.13,0.432-0.287,0.951-0.472,1.551c-0.165,0.581-0.359,1.177-0.562,1.766c-0.198,0.605-0.411,1.256-0.657,1.845
			c-0.246,0.599-0.496,1.259-0.804,1.834c-0.582,1.204-1.314,2.354-2.184,3.442c-0.425,0.562-0.917,1.058-1.41,1.581
			c-0.492,0.51-1.045,0.979-1.6,1.444c-0.56,0.445-1.142,0.876-1.752,1.267c-0.609,0.38-1.212,0.746-1.823,1.067
			c-0.609,0.321-1.211,0.603-1.772,0.849c-0.382,0.171-0.76,0.315-1.107,0.438l-1.227,0.007c0.07-0.209,0.144-0.425,0.224-0.654
			c0.541-1.495,1.364-3.466,2.37-5.335c0.501-0.941,1.068-1.841,1.629-2.669c0.301-0.397,0.589-0.78,0.862-1.144
			c0.301-0.349,0.588-0.678,0.855-0.979c0.287-0.273,0.546-0.53,0.78-0.753c0.23-0.236,0.474-0.387,0.651-0.54
			c0.375-0.281,0.589-0.445,0.589-0.445s-0.224,0.144-0.616,0.403c-0.2,0.138-0.451,0.268-0.697,0.486
			c-0.252,0.212-0.539,0.441-0.854,0.705c-0.294,0.28-0.61,0.589-0.939,0.913c-0.31,0.354-0.638,0.719-0.972,1.099
			c-0.637,0.794-1.285,1.667-1.867,2.581c-1.177,1.827-2.169,3.768-2.849,5.253c-0.13,0.301-0.253,0.578-0.364,0.831
			c-0.074-0.185-0.157-0.394-0.221-0.615c-0.144-0.473-0.323-1.055-0.438-1.694c-0.117-0.646-0.193-1.345-0.224-2.098
			c-0.036-1.492,0.137-3.176,0.676-4.825c0.245-0.835,0.609-1.656,1.033-2.457c0.411-0.801,0.95-1.564,1.501-2.3
			c0.595-0.726,1.244-1.403,1.93-2.026c0.732-0.605,1.465-1.163,2.271-1.618c0.828-0.441,1.608-0.849,2.465-1.105
			c0.86-0.261,1.664-0.466,2.455-0.568c0.814-0.068,1.567-0.079,2.225-0.041c0.66,0.027,1.313,0.226,1.796,0.343
			c0.479,0.103,0.883,0.294,1.14,0.39c0.254,0.103,0.404,0.185,0.404,0.185S52.77,53.904,52.694,54.199z"/>
	</g>
</g>
<g>
</g>
<g>
</g>
<g>
</g>
<g>
</g>
<g>
</g>
<g>
</g>
<g>
</g>
<g>
</g>
<g>
</g>
<g>
</g>
<g>
</g>
<g>
</g>
<g>
</g>
<g>
</g>
<g>
</g>
</svg>
